<?xml version="1.0" encoding="utf-8"?>
<!-- Generator: Adobe Illustrator 19.0.1, SVG Export Plug-In . SVG Version: 6.00 Build 0)  -->
<svg version="1.1" id="Layer_1" xmlns="http://www.w3.org/2000/svg" xmlns:xlink="http://www.w3.org/1999/xlink" x="0px" y="0px"
	 viewBox="0 0 80 80" style="enable-background:new 0 0 80 80;" xml:space="preserve">
<style type="text/css">
	.st0{fill:#654BED;}
</style>
<g>
	<path class="st0" d="M59.5,32.5c0-0.8-0.7-1.5-1.5-1.5H28c-0.8,0-1.5,0.7-1.5,1.5c0,0.8,0.7,1.5,1.5,1.5h30
		C58.9,34,59.5,33.3,59.5,32.5z M28,28h17.5c0.8,0,1.5-0.7,1.5-1.5c0-0.8-0.7-1.5-1.5-1.5H28c-0.8,0-1.5,0.7-1.5,1.5
		C26.5,27.3,27.2,28,28,28z M70,16c-1.8-1.4-3.9-2.3-6.3-2.8C63.3,10.9,62.4,8.8,61,7c-2.7-3.6-7.1-6-12-6H16c-1.7,0-3,1.3-3,3v33h6
		V7h30c4,0,7.5,2.7,8.6,6.4c0.3,0.8,0.4,1.7,0.4,2.6c0,1.4-0.3,2.7-0.9,3.9c1.2-0.6,2.5-0.9,3.9-0.9c0.9,0,1.8,0.1,2.6,0.4
		c3.7,1.1,6.4,4.6,6.4,8.6v45H36.4l-6,6H73c1.7,0,3-1.3,3-3V28C76,23.1,73.7,18.7,70,16z"/>
	<polygon class="st0" points="31,58 31,43 13,43 13,58 1,58 22,79 43.1,58 	"/>
</g>
</svg>
