<svg version="1.1" xmlns="http://www.w3.org/2000/svg" x="0" y="0" viewBox="0 0 24.08 24.08" xml:space="preserve"><path fill="#654BED" d="M23.03 13.49c0.34 0.48 0.6 1 0.78 1.58 0.18 0.57 0.27 1.16 0.27 1.77 0 0.88-0.18 1.7-0.53 2.47 -0.35 0.77-0.83 1.45-1.45 2.03 -0.62 0.58-1.33 1.04-2.16 1.37s-1.69 0.5-2.61 0.5c-1.31 0-2.49-0.31-3.54-0.93 -0.29 0.04-0.58 0.07-0.88 0.09 -0.3 0.02-0.59 0.03-0.88 0.03 -1.53 0-2.97-0.28-4.32-0.82 -1.34-0.55-2.52-1.3-3.53-2.25 -1.01-0.95-1.81-2.07-2.38-3.35 -0.58-1.28-0.87-2.65-0.87-4.11 0-0.28 0.01-0.55 0.04-0.8 0.03-0.25 0.06-0.5 0.1-0.75C0.36 9.32 0 8.24 0 7.09c0-0.86 0.18-1.66 0.53-2.43 0.35-0.76 0.83-1.42 1.45-1.98C2.59 2.12 3.31 1.68 4.13 1.36c0.82-0.32 1.69-0.48 2.61-0.48 0.66 0 1.29 0.08 1.88 0.24 0.59 0.16 1.15 0.39 1.66 0.68 0.29-0.04 0.59-0.07 0.88-0.09 0.3-0.02 0.59-0.03 0.88-0.03 1.54 0 2.98 0.27 4.34 0.8 1.35 0.53 2.53 1.26 3.54 2.19 1.01 0.93 1.81 2.02 2.39 3.25 0.58 1.23 0.87 2.55 0.87 3.96C23.18 12.39 23.13 12.93 23.03 13.49zM17.33 16.7c0.47-0.62 0.71-1.36 0.71-2.2 0-0.66-0.13-1.22-0.39-1.67 -0.27-0.45-0.65-0.83-1.15-1.13 -0.45-0.29-1.04-0.55-1.76-0.78 -0.72-0.18-1.49-0.36-2.31-0.54l-0.89-0.2c-0.24-0.05-0.43-0.09-0.57-0.13 -0.16-0.04-0.31-0.08-0.45-0.13 -0.13-0.05-0.27-0.1-0.41-0.16C9.84 9.63 9.61 9.47 9.43 9.29c-0.14-0.16-0.21-0.37-0.21-0.63 0-0.38 0.23-0.72 0.68-1.03 0.51-0.28 1.14-0.42 1.89-0.41 0.86 0 1.47 0.13 1.81 0.38 0.41 0.3 0.74 0.67 0.97 1.11 0.2 0.32 0.41 0.56 0.62 0.72 0.2 0.15 0.48 0.24 0.83 0.25 0.4 0 0.72-0.13 1-0.39 0.27-0.25 0.4-0.52 0.39-0.83 0-0.36-0.1-0.72-0.3-1.06 -0.2-0.32-0.53-0.66-0.99-1.03 -0.23-0.16-0.49-0.3-0.76-0.43 -0.28-0.13-0.59-0.25-0.92-0.35 -0.35-0.1-0.72-0.17-1.11-0.22 -0.39-0.05-0.82-0.07-1.29-0.07 -1.19 0-2.2 0.15-3.02 0.44 -0.88 0.3-1.55 0.72-2 1.26C6.54 7.52 6.31 8.14 6.31 8.87c0 0.76 0.22 1.38 0.65 1.86 0.44 0.52 1.02 0.91 1.77 1.17 0.71 0.28 1.61 0.53 2.72 0.75 0.42 0.1 0.78 0.18 1.1 0.24 0.32 0.06 0.6 0.13 0.85 0.21 0.47 0.13 0.86 0.35 1.15 0.65 0.31 0.27 0.47 0.61 0.47 1.03 0 0.58-0.29 1.06-0.85 1.42 -0.53 0.37-1.26 0.55-2.16 0.54 -0.73 0-1.25-0.08-1.59-0.25 -0.41-0.19-0.72-0.43-0.92-0.71 -0.25-0.33-0.46-0.69-0.62-1.08 -0.14-0.37-0.34-0.65-0.59-0.84 -0.23-0.19-0.51-0.29-0.83-0.29 -0.41 0-0.75 0.12-1.02 0.34 -0.27 0.26-0.4 0.56-0.39 0.9 0 0.59 0.22 1.18 0.65 1.77 0.43 0.61 0.98 1.08 1.65 1.42 0.98 0.51 2.22 0.77 3.7 0.78 1.21 0 2.29-0.18 3.23-0.54C16.2 17.81 16.88 17.31 17.33 16.7z"/></svg>