<svg xmlns="http://www.w3.org/2000/svg" height="1000" width="1046"><path d="M237.5 1000l0-674.7 -224.3 0 0 674.7 224.3 0zm-112.1-766.9c78.2 0 126.9-51.8 126.9-116.6-1.5-66.2-48.7-116.6-125.4-116.6-76.7 0-126.9 50.4-126.9 116.6 0 64.7 48.7 116.6 123.9 116.6l1.5 0zm236.2 766.9l224.3 0 0-376.8c0-20.2 1.5-40.3 7.4-54.7 16.2-40.3 53.1-82 115.1-82 81.1 0 113.6 61.9 113.6 152.6l0 360.9 224.2 0 0-386.9c0-207.2-110.6-303.7-258.2-303.7-121 0-174.1 67.6-203.6 113.7l1.5 0 0-97.9 -224.3 0c2.9 63.3 0 674.7 0 674.7z" fill="#654BED"/></svg>
