<svg width="256" height="256" viewBox="0 0 256 256" version="1" xmlns="http://www.w3.org/2000/svg" preserveAspectRatio="xMinYMin meet"><g fill="#F35045"><path d="M160 208c2 3 4 3 5 2l84-29c3 0 2-1 1-2-1-2-27-38-29-40-1-2-2-2-4-1l-85 22s26 45 28 48zM256 171v-42c-10 2-22 5-26 7 7 9 18 24 26 35zM230 84c-2 0-31 5-32 5-2 1-2 2-1 3l26 34s31-7 33-8v-4c-6-8-21-27-22-29-2-2-3-2-4-1zM47 29c7-1 7 1 10 5l69 116 87-21c-5-7-27-38-29-41s0-5 4-6c4 0 37-6 40-6 3-1 5-2 10 4 2 3 10 13 18 22v-54c0-13-5-25-14-34s-21-14-34-14h-160c-13 0-25 5-34 14-5 5-9 11-11 18 15-1 40-3 44-3zM168 224c-7 2-10 3-15-4-4-5-23-40-33-57-17 5-50 13-60 16-9 2-13-4-15-7-1-2-28-61-45-98v134c0 13 5 25 14 34s21 14 34 14h160c13 0 25-5 34-14s14-21 14-34v-16c-20 7-83 30-88 32zM60 165c3 0 52-12 53-12s1-1 0-3-65-112-65-112c0-1 0-1-2-1-1 0-37 3-45 4-1 1-1 3-1 5 9 17 57 118 58 119 0 1 0 1 2 0z"/></g></svg>