<svg xmlns="http://www.w3.org/2000/svg" viewBox="0 0 512 512"><title>HTML5 Logo</title><path fill="#E44D26" d="M108 471l-33-370h362l-33 370-148 41z"/><path fill="#F16529" d="M256 481l120-34 28-316h-148z"/><path fill="#EBEBEB" d="M256 268h-60l-4-46h64v-46h-114l1 12 11 126h102zM256 386l-51-13-3-37h-46l7 72 93 25z"/><path d="M108 0h23v23h21v-23h23v69h-22v-23h-21v23h-23v-69zM206 23h-20v-23h64v23h-20v46h-23v-46zM260 0h24l15 24 14-24h24v69h-23v-34l-16 25-16-25v34h-23v-69zM349 0h23v46h32v23h-55v-69z"/><path fill="#fff" d="M256 268v46h56l-6 59-50 13v47l93-25 1-8 10-120 1-12h-12zM256 176v46h110v-10l3-24 1-12z"/></svg>