<svg xmlns:svg="http://www.w3.org/2000/svg" xmlns="http://www.w3.org/2000/svg" id="svg3058" version="1.1" width="300" height="159" xml:space="preserve"><metadata id="metadata3064"/><defs id="defs3062"><clipPath clipPathUnits="userSpaceOnUse" id="clipPath3074"><path d="m297.5 265.6c164 0 296.9 69.9 296.9 156.2 0 86.3-132.9 156.2-296.9 156.2C133.5 578 0.6 508.1 0.6 421.8 0.6 335.5 133.5 265.6 297.5 265.6" id="path3076"/></clipPath><clipPath clipPathUnits="userSpaceOnUse" id="clipPath3080"><path d="m0 265 595 0 0 312-595 0 0-312z" id="path3082"/></clipPath><radialGradient fx="0" fy="0" cx="0" cy="0" r="1" gradientUnits="userSpaceOnUse" gradientTransform="matrix(323.2761,-218.0237,-218.0237,-323.2761,178.8437,523.0916)" id="radialGradient3090"><stop offset="0" id="stop3092" style="stop-color:#4a659b;stop-opacity:1"/><stop offset="1" id="stop3094" style="stop-color:#231f20;stop-opacity:1"/></radialGradient><radialGradient fx="0" fy="0" cx="0" cy="0" r="0.5" gradientUnits="userSpaceOnUse" gradientTransform="matrix(323.2761,-218.0237,-218.0237,-323.2761,178.8437,523.0916)" id="radialGradient3102"><stop offset="0" id="stop3104" style="stop-color:#ffffff;stop-opacity:1"/><stop offset="1" id="stop3106" style="stop-color:#4a659b;stop-opacity:1"/></radialGradient><clipPath clipPathUnits="userSpaceOnUse" id="clipPath3114"><path d="m0 265 595 0 0 312-595 0 0-312z" id="path3116"/></clipPath></defs><g id="g3066" transform="matrix(1.25,0,0,-1.25,-0.69810475,491.00175)"><g id="g3068"/><g id="g3070" transform="matrix(0.40411924,0,0,0.40411924,0.33278975,158.26676)"><g id="g3072" clip-path="url(#clipPath3074)"><g id="g3078" clip-path="url(#clipPath3080)"><path d="m297.5 265.6c164 0 296.9 69.9 296.9 156.2 0 86.3-132.9 156.2-296.9 156.2C133.5 578 0.6 508.1 0.6 421.8 0.6 335.5 133.5 265.6 297.5 265.6" id="path3084" style="fill-rule:nonzero;fill:#231f20"/><path d="M502.1 305.1C381.7 126.7 139.2 79.5-39.2 199.9-217.6 320.2-264.8 562.7-144.5 741.2-24.1 919.6 218.4 966.8 396.8 846.4 575.3 726.1 622.4 483.6 502.1 305.1" id="path3086" style="fill-rule:nonzero;fill:#231f20"/><g id="g3088"><path d="m0 265 595 0 0 312-595 0 0-312z" id="path3096" fill="url(#radialGradient3090)"/></g><path d="M340.5 414.1C280.3 324.8 159 301.3 69.8 361.4-19.4 421.6-43 542.9 17.2 632.1 77.4 721.3 198.6 744.9 287.8 684.7 377.1 624.5 400.6 503.3 340.5 414.1" id="path3098" style="fill-rule:nonzero;fill:#4a659b"/><g id="g3100"><path d="m0 265 595 0 0 312-595 0 0-312z" id="path3108" fill="url(#radialGradient3102)"/></g></g></g></g><g id="g3110" transform="matrix(0.40411924,0,0,0.40411924,0.33278975,158.26676)"><g id="g3112" clip-path="url(#clipPath3114)"><path d="m297.5 277.2c157.6 0 285.3 64.7 285.3 144.6 0 79.9-127.8 144.6-285.3 144.6-157.6 0-285.3-64.7-285.3-144.6 0-79.9 127.8-144.6 285.3-144.6" id="path3118" style="fill-rule:nonzero;fill:#617cbe"/><path d="m355.3 375.1c0 0 14.2 72.8 14.2 72.8 3.2 16.4 0.5 28.7-7.9 36.5-8.2 7.5-22 11.1-42.4 11.1l-24.5 0 7 36.1c0.3 1.4-0.1 2.8-1 3.8-0.9 1.1-2.2 1.7-3.6 1.7l-33.8 0c-2.2 0-4.1-1.6-4.6-3.8l-15-77.3c-1.4 8.7-4.7 16.2-10.1 22.4-9.9 11.4-25.6 17.1-46.7 17.1l-65.6 0c-2.2 0-4.1-1.6-4.6-3.8L86.4 335.2c-0.3-1.4 0.1-2.8 1-3.8 0.9-1.1 2.2-1.7 3.6-1.7l34.1 0c2.2 0 4.1 1.6 4.6 3.8l7.4 37.9 25.4 0c13.3 0 24.5 1.4 33.2 4.3 8.9 2.9 17.2 7.8 24.4 14.6 5.9 5.4 10.7 11.4 14.4 17.9l-6.1-31.3c-0.3-1.4 0.1-2.8 1-3.8 0.9-1.1 2.2-1.7 3.6-1.7l33.8 0c2.2 0 4.1 1.6 4.6 3.8l16.7 85.9 23.2 0c9.9 0 12.8-2 13.6-2.8 0.7-0.8 2.2-3.5 0.5-12.1L311.8 376.8c-0.3-1.4 0.1-2.8 1-3.8 0.9-1.1 2.2-1.7 3.6-1.7l34.4 0c2.2 0 4.1 1.6 4.6 3.8zm-156.8 60.2c-2.1-10.9-6.1-18.7-11.9-23.2-5.9-4.5-15.2-6.8-27.9-6.8l-15.1 0 10.9 56.2 19.5 0c14.4 0 20.1-3.1 22.5-5.6 3.2-3.6 3.9-10.7 2-20.6" id="path3120" style="fill-rule:nonzero;fill:#fff"/><path d="m500 478.4c-9.9 11.4-25.6 17.1-46.7 17.1l-65.6 0c-2.2 0-4.1-1.6-4.6-3.8L352.8 335.2c-0.3-1.4 0.1-2.8 1-3.8 0.9-1.1 2.2-1.7 3.6-1.7l34.1 0c2.2 0 4.1 1.6 4.6 3.8l7.4 37.9 25.4 0c13.3 0 24.5 1.4 33.2 4.3 8.9 2.9 17.2 7.8 24.4 14.6 6 5.6 11 11.8 14.8 18.5 3.8 6.7 6.5 14.3 8 22.3 3.9 19.9 0.8 35.9-9.2 47.3zm-35.4-43.1c-2.1-10.9-6.1-18.7-11.9-23.2-5.9-4.5-15.2-6.8-27.9-6.8l-15.1 0 10.9 56.2 19.5 0c14.4 0 20.1-3.1 22.5-5.6 3.2-3.6 3.9-10.7 2-20.6" id="path3122" style="fill-rule:nonzero;fill:#fff"/><path d="m174 466.2c13 0 21.6-2.4 25.9-7.2 4.3-4.8 5.3-13 3.1-24.6-2.4-12.1-6.9-20.8-13.6-25.9-6.7-5.2-17-7.8-30.7-7.8l-20.7 0 12.7 65.5 23.4 0zm-83.1-131.8 34.1 0 8.1 41.6 29.2 0c12.9 0 23.5 1.4 31.8 4.1 8.3 2.7 15.9 7.2 22.7 13.6 5.7 5.3 10.3 11 13.9 17.4 3.5 6.3 6 13.3 7.5 21 3.6 18.6 0.9 33-8.2 43.4-9 10.4-23.4 15.5-43.2 15.5l-65.6 0-30.4-156.5" id="path3124" style="fill-rule:nonzero;fill:#08090d"/><path d="m263.3 532.5 33.8 0-8.1-41.6 30.1 0c19 0 32-3.3 39.2-9.9 7.2-6.6 9.4-17.3 6.5-32.2l-14.2-72.8-34.4 0 13.5 69.3c1.5 7.9 1 13.3-1.7 16.1-2.7 2.9-8.3 4.3-17 4.3l-27 0-17.4-89.7-33.8 0 30.4 156.5" id="path3126" style="fill-rule:nonzero;fill:#08090d"/><path d="m440.2 466.2c13 0 21.6-2.4 25.9-7.2 4.3-4.8 5.3-13 3.1-24.6-2.4-12.1-6.9-20.8-13.6-25.9-6.7-5.2-17-7.8-30.7-7.8l-20.7 0 12.7 65.5 23.4 0zm-83.1-131.8 34.1 0 8.1 41.6 29.2 0c12.9 0 23.5 1.4 31.8 4.1 8.3 2.7 15.9 7.2 22.7 13.6 5.7 5.3 10.3 11 13.9 17.4 3.5 6.3 6 13.3 7.5 21 3.6 18.6 0.9 33-8.2 43.4-9 10.4-23.4 15.5-43.2 15.5l-65.6 0-30.4-156.5" id="path3128" style="fill-rule:nonzero;fill:#08090d"/></g></g></g></svg>