<svg width="298" height="420" viewBox="0 0 298 420" version="1" xmlns="http://www.w3.org/2000/svg"><g fill="none"><path d="M233 16h-25l26 28v13h-53v-16h26l-26-28v-13h52v16zm-62 0h-25l26 28v13h-53v-16h26l-26-28v-13h52v16zm-62 0h-27v25h27v16h-46v-57h46v16zm0 0" fill="#131313"/><path d="M27 386l-27-303h298l-28 303-121 34-122-34zm0 0" fill="#1572B6"/><path d="M149 394l98-27 23-260h-121v287zm0 0" fill="#33A9DC"/><path d="M149 217h49l3-38h-52v-37h93l-1 10-9 103h-83v-38zm0 0" fill="#fff"/><path d="M149 314l-42-11-2-30h-38l6 59 76 21v-39zm0 0" fill="#EBEBEB"/><path d="M195 253l-5 50-41 11v39l76-21 1-6 6-73h-37zm0 0" fill="#fff"/><path d="M149 142v37h-90l-1-8-1-19-1-10h93zm0 0M149 218v37h-41l-1-9-2-19v-9h44zm0 0" fill="#EBEBEB"/></g></svg>